<svg width="22" height="15" viewBox="0 0 22 15" fill="none" xmlns="http://www.w3.org/2000/svg">
<path d="M21.4873 14.9782H0.512747C0.305905 14.9782 0.138184 14.8105 0.138184 14.6037V1.12005C0.138184 0.913205 0.305905 0.745483 0.512747 0.745483H21.4873C21.6941 0.745483 21.8619 0.913205 21.8619 1.12005V14.6037C21.8618 14.8106 21.6941 14.9782 21.4873 14.9782Z" fill="#F5F5F5"/>
<path d="M21.8618 1.84036H0.138184V1.12005C0.138184 0.913205 0.305905 0.745483 0.512747 0.745483H21.4873C21.6941 0.745483 21.8619 0.913205 21.8619 1.12005L21.8618 1.84036Z" fill="#FF4B55"/>
<path d="M21.8618 5.125H0.138184V6.21984H21.8618V5.125Z" fill="#FF4B55"/>
<path d="M21.8618 2.9353H0.138184V4.03014H21.8618V2.9353Z" fill="#FF4B55"/>
<path d="M21.8618 8.40933H0.512747C0.305905 8.40933 0.138184 8.24161 0.138184 8.03477V7.31445H21.8618V8.40933Z" fill="#FF4B55"/>
<path d="M21.8618 11.6942H0.138184V12.7891H21.8618V11.6942Z" fill="#FF4B55"/>
<path d="M21.4873 14.9785H0.512747C0.305905 14.9785 0.138184 14.8108 0.138184 14.6039V13.8837H21.8618V14.604C21.8618 14.8108 21.6941 14.9785 21.4873 14.9785Z" fill="#FF4B55"/>
<path d="M21.8618 9.50452H0.138184V10.5994H21.8618V9.50452Z" fill="#FF4B55"/>
<path d="M9.87636 0.745483H0.512747C0.305905 0.745483 0.138184 0.913163 0.138184 1.12V8.03466C0.138184 8.2415 0.305905 8.40922 0.512747 8.40922H9.8764C10.0832 8.40922 10.251 8.2415 10.251 8.03466V1.12C10.2509 0.913163 10.0832 0.745483 9.87636 0.745483Z" fill="#41479B"/>
<path d="M1.18958 1.60579L1.27241 1.85421L1.53426 1.8562C1.56818 1.8565 1.58221 1.89974 1.55495 1.91987L1.34431 2.07545L1.42332 2.3251C1.43358 2.3574 1.39675 2.38419 1.36915 2.36444L1.15613 2.21221L0.94311 2.36448C0.915513 2.38419 0.878759 2.35744 0.888933 2.32514L0.967951 2.07549L0.757306 1.91992C0.730048 1.89974 0.74408 1.85654 0.777993 1.85624L1.03985 1.85425L1.12268 1.60583C1.13336 1.57362 1.17881 1.57362 1.18958 1.60579Z" fill="#F5F5F5"/>
<path d="M1.18958 2.90581L1.27241 3.15422L1.53426 3.15622C1.56818 3.15651 1.58221 3.19975 1.55495 3.21989L1.34431 3.37547L1.42332 3.62511C1.43358 3.65742 1.39674 3.68421 1.36915 3.66445L1.15613 3.51222L0.94311 3.6645C0.915512 3.68421 0.878759 3.65746 0.888933 3.62516L0.967951 3.37551L0.757306 3.21993C0.730048 3.19975 0.74408 3.15656 0.777993 3.15626L1.03985 3.15427L1.12268 2.90585C1.13336 2.87368 1.17881 2.87368 1.18958 2.90581Z" fill="#F5F5F5"/>
<path d="M1.18958 4.20635L1.27241 4.45476L1.53426 4.45675C1.56818 4.45705 1.58221 4.50029 1.55495 4.52043L1.34431 4.676L1.42332 4.92565C1.43358 4.95795 1.39674 4.98474 1.36915 4.96499L1.15613 4.81276L0.94311 4.96503C0.915512 4.98474 0.878759 4.95799 0.888933 4.92569L0.967951 4.67605L0.757306 4.52047C0.730048 4.50029 0.74408 4.45709 0.777993 4.4568L1.03985 4.4548L1.12268 4.20639C1.13336 4.17421 1.17881 4.17421 1.18958 4.20635Z" fill="#F5F5F5"/>
<path d="M1.18958 5.50704L1.27241 5.75545L1.53426 5.75745C1.56818 5.75774 1.58221 5.80098 1.55495 5.82112L1.34431 5.9767L1.42332 6.22634C1.43358 6.25864 1.39674 6.28544 1.36915 6.26568L1.15613 6.11345L0.94311 6.26572C0.915512 6.28544 0.878759 6.25869 0.888933 6.22638L0.967951 5.97674L0.757306 5.82116C0.730048 5.80098 0.74408 5.75778 0.777993 5.75749L1.03985 5.7555L1.12268 5.50708C1.13336 5.47486 1.17881 5.47486 1.18958 5.50704Z" fill="#F5F5F5"/>
<path d="M1.18958 6.80761L1.27241 7.05602L1.53426 7.05801C1.56818 7.05831 1.58221 7.10155 1.55495 7.12169L1.34431 7.27727L1.42332 7.52691C1.43358 7.55922 1.39674 7.58601 1.36915 7.56625L1.15613 7.41402L0.94311 7.56629C0.915512 7.58601 0.878759 7.55926 0.888933 7.52695L0.967951 7.27731L0.757306 7.12173C0.730048 7.10155 0.74408 7.05835 0.777993 7.05806L1.03985 7.05607L1.12268 6.80765C1.13336 6.77539 1.17881 6.77539 1.18958 6.80761Z" fill="#F5F5F5"/>
<path d="M2.19812 2.24212L2.28095 2.49053L2.54281 2.49253C2.57672 2.49282 2.59075 2.53606 2.5635 2.5562L2.35285 2.71178L2.43187 2.96142C2.44213 2.99373 2.40529 3.02052 2.37769 3.00076L2.16467 2.84849L1.95165 3.00076C1.92406 3.02047 1.8873 2.99373 1.89748 2.96142L1.9765 2.71178L1.76585 2.5562C1.73859 2.53602 1.75262 2.49282 1.78654 2.49253L2.04839 2.49053L2.13123 2.24212C2.14187 2.20998 2.1874 2.20998 2.19812 2.24212Z" fill="#F5F5F5"/>
<path d="M2.1991 3.54354L2.28193 3.79196L2.54379 3.79395C2.5777 3.79425 2.59173 3.83749 2.56447 3.85762L2.35383 4.0132L2.43285 4.26285C2.44311 4.29515 2.40627 4.32194 2.37867 4.30219L2.16565 4.14991L1.95263 4.30219C1.92503 4.3219 1.88828 4.29519 1.89845 4.26285L1.97747 4.0132L1.76683 3.85762C1.73957 3.83744 1.7536 3.79425 1.78751 3.79395L2.04937 3.79196L2.1322 3.54354C2.14284 3.51137 2.18837 3.51137 2.1991 3.54354Z" fill="#F5F5F5"/>
<path d="M2.1991 4.8442L2.28193 5.09262L2.54379 5.09461C2.5777 5.09491 2.59173 5.13814 2.56447 5.15828L2.35383 5.31386L2.43285 5.5635C2.44311 5.59581 2.40627 5.6226 2.37867 5.60284L2.16565 5.45057L1.95263 5.60284C1.92503 5.62256 1.88828 5.59581 1.89845 5.5635L1.97747 5.31386L1.76683 5.15828C1.73957 5.1381 1.7536 5.09491 1.78751 5.09461L2.04937 5.09262L2.1322 4.8442C2.14284 4.81202 2.18837 4.81202 2.1991 4.8442Z" fill="#F5F5F5"/>
<path d="M2.1991 6.14483L2.28193 6.39324L2.54379 6.39524C2.5777 6.39553 2.59173 6.43877 2.56447 6.45891L2.35383 6.61449L2.43285 6.86414C2.44311 6.89644 2.40627 6.92323 2.37867 6.90347L2.16565 6.7512L1.95263 6.90347C1.92503 6.92319 1.88828 6.89644 1.89845 6.86414L1.97747 6.61449L1.76683 6.45891C1.73957 6.43873 1.7536 6.39553 1.78751 6.39524L2.04937 6.39324L2.1322 6.14483C2.14284 6.11269 2.18837 6.11269 2.1991 6.14483Z" fill="#F5F5F5"/>
<path d="M3.20862 1.60519L3.29145 1.8536L3.55331 1.85559C3.58722 1.85589 3.60125 1.89913 3.57399 1.91927L3.36335 2.07485L3.44237 2.32449C3.45263 2.35679 3.41579 2.38358 3.38819 2.36383L3.17517 2.21156L2.96215 2.36383C2.93456 2.38354 2.8978 2.35679 2.90798 2.32449L2.98699 2.07485L2.77635 1.91927C2.74909 1.89909 2.76312 1.85589 2.79704 1.85559L3.05889 1.8536L3.14172 1.60519C3.15241 1.57301 3.19789 1.57301 3.20862 1.60519Z" fill="#F5F5F5"/>
<path d="M3.20862 2.90581L3.29145 3.15423L3.55331 3.15622C3.58722 3.15652 3.60125 3.19976 3.57399 3.2199L3.36335 3.37547L3.44237 3.62512C3.45263 3.65742 3.41579 3.68421 3.38819 3.66446L3.17517 3.51219L2.96215 3.66446C2.93456 3.68417 2.8978 3.65742 2.90798 3.62512L2.98699 3.37547L2.77635 3.2199C2.74909 3.19972 2.76312 3.15652 2.79704 3.15622L3.05889 3.15423L3.14172 2.90581C3.15241 2.87368 3.19789 2.87368 3.20862 2.90581Z" fill="#F5F5F5"/>
<path d="M3.20862 4.20635L3.29145 4.45477L3.55331 4.45676C3.58722 4.45706 3.60125 4.5003 3.57399 4.52043L3.36335 4.67601L3.44237 4.92566C3.45263 4.95796 3.41579 4.98475 3.38819 4.965L3.17517 4.81272L2.96215 4.965C2.93456 4.98471 2.8978 4.95796 2.90798 4.92566L2.98699 4.67601L2.77635 4.52043C2.74909 4.50025 2.76312 4.45706 2.79704 4.45676L3.05889 4.45477L3.14172 4.20635C3.15241 4.17422 3.19789 4.17422 3.20862 4.20635Z" fill="#F5F5F5"/>
<path d="M3.20862 5.50704L3.29145 5.75546L3.55331 5.75745C3.58722 5.75775 3.60125 5.80099 3.57399 5.82112L3.36335 5.9767L3.44237 6.22635C3.45263 6.25865 3.41579 6.28544 3.38819 6.26569L3.17517 6.11341L2.96215 6.26569C2.93456 6.2854 2.8978 6.25865 2.90798 6.22635L2.98699 5.9767L2.77635 5.82112C2.74909 5.80094 2.76312 5.75775 2.79704 5.75745L3.05889 5.75546L3.14172 5.50704C3.15241 5.47487 3.19789 5.47487 3.20862 5.50704Z" fill="#F5F5F5"/>
<path d="M3.20862 6.80761L3.29145 7.05603L3.55331 7.05802C3.58722 7.05832 3.60125 7.10156 3.57399 7.12169L3.36335 7.27727L3.44237 7.52692C3.45263 7.55922 3.41579 7.58601 3.38819 7.56626L3.17517 7.41398L2.96215 7.56626C2.93456 7.58597 2.8978 7.55922 2.90798 7.52692L2.98699 7.27727L2.77635 7.12169C2.74909 7.10151 2.76312 7.05832 2.79704 7.05802L3.05889 7.05603L3.14172 6.80761C3.15241 6.77539 3.19789 6.77539 3.20862 6.80761Z" fill="#F5F5F5"/>
<path d="M4.21814 2.24261L4.30097 2.49102L4.56283 2.49301C4.59674 2.49331 4.61077 2.53655 4.58352 2.55669L4.37287 2.71226L4.45189 2.96191C4.46215 2.99421 4.42531 3.021 4.39771 3.00125L4.18469 2.84898L3.97167 3.00125C3.94408 3.02096 3.90732 2.99421 3.9175 2.96191L3.99652 2.71226L3.78587 2.55669C3.75861 2.53651 3.77264 2.49331 3.80656 2.49301L4.06841 2.49102L4.15125 2.24261C4.16189 2.21047 4.20742 2.21047 4.21814 2.24261Z" fill="#F5F5F5"/>
<path d="M4.21814 3.54354L4.30097 3.79196L4.56283 3.79395C4.59674 3.79425 4.61077 3.83749 4.58352 3.85762L4.37287 4.0132L4.45189 4.26285C4.46215 4.29515 4.42531 4.32194 4.39771 4.30219L4.18469 4.14991L3.97167 4.30219C3.94408 4.3219 3.90732 4.29519 3.9175 4.26285L3.99652 4.0132L3.78587 3.85762C3.75861 3.83744 3.77264 3.79425 3.80656 3.79395L4.06841 3.79196L4.15125 3.54354C4.16189 3.51137 4.20742 3.51137 4.21814 3.54354Z" fill="#F5F5F5"/>
<path d="M4.21814 4.8442L4.30097 5.09262L4.56283 5.09461C4.59674 5.09491 4.61077 5.13814 4.58352 5.15828L4.37287 5.31386L4.45189 5.5635C4.46215 5.59581 4.42531 5.6226 4.39771 5.60284L4.18469 5.45057L3.97167 5.60284C3.94408 5.62256 3.90732 5.59581 3.9175 5.5635L3.99652 5.31386L3.78587 5.15828C3.75861 5.1381 3.77264 5.09491 3.80656 5.09461L4.06841 5.09262L4.15125 4.8442C4.16189 4.81202 4.20742 4.81202 4.21814 4.8442Z" fill="#F5F5F5"/>
<path d="M4.21814 6.14483L4.30097 6.39324L4.56283 6.39524C4.59674 6.39553 4.61077 6.43877 4.58352 6.45891L4.37287 6.61449L4.45189 6.86414C4.46215 6.89644 4.42531 6.92323 4.39771 6.90347L4.18469 6.7512L3.97167 6.90347C3.94408 6.92319 3.90732 6.89644 3.9175 6.86414L3.99652 6.61449L3.78587 6.45891C3.75861 6.43873 3.77264 6.39553 3.80656 6.39524L4.06841 6.39324L4.15125 6.14483C4.16189 6.11269 4.20742 6.11269 4.21814 6.14483Z" fill="#F5F5F5"/>
<path d="M5.2277 1.60519L5.31054 1.8536L5.57239 1.85559C5.60631 1.85589 5.62034 1.89913 5.59308 1.91927L5.38243 2.07485L5.46145 2.32449C5.47171 2.35679 5.43487 2.38358 5.40728 2.36383L5.19421 2.21156L4.9812 2.36383C4.9536 2.38354 4.91684 2.35679 4.92702 2.32449L5.00604 2.07485L4.79539 1.91927C4.76813 1.89909 4.78217 1.85589 4.81608 1.85559L5.07793 1.8536L5.16077 1.60519C5.17149 1.57301 5.21698 1.57301 5.2277 1.60519Z" fill="#F5F5F5"/>
<path d="M5.2277 2.90581L5.31054 3.15423L5.57239 3.15622C5.60631 3.15652 5.62034 3.19976 5.59308 3.2199L5.38243 3.37547L5.46145 3.62512C5.47171 3.65742 5.43487 3.68421 5.40728 3.66446L5.19421 3.51219L4.9812 3.66446C4.9536 3.68417 4.91684 3.65742 4.92702 3.62512L5.00604 3.37547L4.79539 3.2199C4.76813 3.19972 4.78217 3.15652 4.81608 3.15622L5.07793 3.15423L5.16077 2.90581C5.17149 2.87368 5.21698 2.87368 5.2277 2.90581Z" fill="#F5F5F5"/>
<path d="M5.2277 4.20635L5.31054 4.45477L5.57239 4.45676C5.60631 4.45706 5.62034 4.5003 5.59308 4.52043L5.38243 4.67601L5.46145 4.92566C5.47171 4.95796 5.43487 4.98475 5.40728 4.965L5.19421 4.81272L4.9812 4.965C4.9536 4.98471 4.91684 4.95796 4.92702 4.92566L5.00604 4.67601L4.79539 4.52043C4.76813 4.50025 4.78217 4.45706 4.81608 4.45676L5.07793 4.45477L5.16077 4.20635C5.17149 4.17422 5.21698 4.17422 5.2277 4.20635Z" fill="#F5F5F5"/>
<path d="M5.2277 5.50704L5.31054 5.75546L5.57239 5.75745C5.60631 5.75775 5.62034 5.80099 5.59308 5.82112L5.38243 5.9767L5.46145 6.22635C5.47171 6.25865 5.43487 6.28544 5.40728 6.26569L5.19421 6.11341L4.9812 6.26569C4.9536 6.2854 4.91684 6.25865 4.92702 6.22635L5.00604 5.9767L4.79539 5.82112C4.76813 5.80094 4.78217 5.75775 4.81608 5.75745L5.07793 5.75546L5.16077 5.50704C5.17149 5.47487 5.21698 5.47487 5.2277 5.50704Z" fill="#F5F5F5"/>
<path d="M5.2277 6.80761L5.31054 7.05603L5.57239 7.05802C5.60631 7.05832 5.62034 7.10156 5.59308 7.12169L5.38243 7.27727L5.46145 7.52692C5.47171 7.55922 5.43487 7.58601 5.40728 7.56626L5.19421 7.41398L4.9812 7.56626C4.9536 7.58597 4.91684 7.55922 4.92702 7.52692L5.00604 7.27727L4.79539 7.12169C4.76813 7.10151 4.78217 7.05832 4.81608 7.05802L5.07793 7.05603L5.16077 6.80761C5.17149 6.77539 5.21698 6.77539 5.2277 6.80761Z" fill="#F5F5F5"/>
<path d="M6.23718 2.24261L6.32002 2.49102L6.58187 2.49301C6.61579 2.49331 6.62982 2.53655 6.60256 2.55669L6.39191 2.71226L6.47093 2.96191C6.48119 2.99421 6.44435 3.021 6.41676 3.00125L6.20374 2.84898L5.99072 3.00125C5.96312 3.02096 5.92637 2.99421 5.93654 2.96191L6.01556 2.71226L5.80491 2.55669C5.77766 2.53651 5.79169 2.49331 5.8256 2.49301L6.08746 2.49102L6.17029 2.24261C6.18101 2.21047 6.22646 2.21047 6.23718 2.24261Z" fill="#F5F5F5"/>
<path d="M6.23718 3.54354L6.32002 3.79196L6.58187 3.79395C6.61579 3.79425 6.62982 3.83749 6.60256 3.85762L6.39191 4.0132L6.47093 4.26285C6.48119 4.29515 6.44435 4.32194 6.41676 4.30219L6.20374 4.14991L5.99072 4.30219C5.96312 4.3219 5.92637 4.29519 5.93654 4.26285L6.01556 4.0132L5.80491 3.85762C5.77766 3.83744 5.79169 3.79425 5.8256 3.79395L6.08746 3.79196L6.17029 3.54354C6.18101 3.51137 6.22646 3.51137 6.23718 3.54354Z" fill="#F5F5F5"/>
<path d="M6.23718 4.8442L6.32002 5.09262L6.58187 5.09461C6.61579 5.09491 6.62982 5.13814 6.60256 5.15828L6.39191 5.31386L6.47093 5.5635C6.48119 5.59581 6.44435 5.6226 6.41676 5.60284L6.20374 5.45057L5.99072 5.60284C5.96312 5.62256 5.92637 5.59581 5.93654 5.5635L6.01556 5.31386L5.80491 5.15828C5.77766 5.1381 5.79169 5.09491 5.8256 5.09461L6.08746 5.09262L6.17029 4.8442C6.18101 4.81202 6.22646 4.81202 6.23718 4.8442Z" fill="#F5F5F5"/>
<path d="M6.23718 6.14483L6.32002 6.39324L6.58187 6.39524C6.61579 6.39553 6.62982 6.43877 6.60256 6.45891L6.39191 6.61449L6.47093 6.86414C6.48119 6.89644 6.44435 6.92323 6.41676 6.90347L6.20374 6.7512L5.99072 6.90347C5.96312 6.92319 5.92637 6.89644 5.93654 6.86414L6.01556 6.61449L5.80491 6.45891C5.77766 6.43873 5.79169 6.39553 5.8256 6.39524L6.08746 6.39324L6.17029 6.14483C6.18101 6.11269 6.22646 6.11269 6.23718 6.14483Z" fill="#F5F5F5"/>
<path d="M7.2467 1.60519L7.32954 1.8536L7.59139 1.85559C7.62531 1.85589 7.63934 1.89913 7.61208 1.91927L7.40143 2.07485L7.48045 2.32449C7.49071 2.35679 7.45387 2.38358 7.42628 2.36383L7.21326 2.21156L7.00024 2.36383C6.97264 2.38354 6.93589 2.35679 6.94606 2.32449L7.02508 2.07485L6.81443 1.91927C6.78718 1.89909 6.80121 1.85589 6.83512 1.85559L7.09698 1.8536L7.17981 1.60519C7.19045 1.57301 7.23598 1.57301 7.2467 1.60519Z" fill="#F5F5F5"/>
<path d="M7.2467 2.90581L7.32954 3.15423L7.59139 3.15622C7.62531 3.15652 7.63934 3.19976 7.61208 3.2199L7.40143 3.37547L7.48045 3.62512C7.49071 3.65742 7.45387 3.68421 7.42628 3.66446L7.21326 3.51219L7.00024 3.66446C6.97264 3.68417 6.93589 3.65742 6.94606 3.62512L7.02508 3.37547L6.81443 3.2199C6.78718 3.19972 6.80121 3.15652 6.83512 3.15622L7.09698 3.15423L7.17981 2.90581C7.19045 2.87368 7.23598 2.87368 7.2467 2.90581Z" fill="#F5F5F5"/>
<path d="M7.2467 4.20635L7.32954 4.45477L7.59139 4.45676C7.62531 4.45706 7.63934 4.5003 7.61208 4.52043L7.40143 4.67601L7.48045 4.92566C7.49071 4.95796 7.45387 4.98475 7.42628 4.965L7.21326 4.81272L7.00024 4.965C6.97264 4.98471 6.93589 4.95796 6.94606 4.92566L7.02508 4.67601L6.81443 4.52043C6.78718 4.50025 6.80121 4.45706 6.83512 4.45676L7.09698 4.45477L7.17981 4.20635C7.19045 4.17422 7.23598 4.17422 7.2467 4.20635Z" fill="#F5F5F5"/>
<path d="M7.2467 5.50704L7.32954 5.75546L7.59139 5.75745C7.62531 5.75775 7.63934 5.80099 7.61208 5.82112L7.40143 5.9767L7.48045 6.22635C7.49071 6.25865 7.45387 6.28544 7.42628 6.26569L7.21326 6.11341L7.00024 6.26569C6.97264 6.2854 6.93589 6.25865 6.94606 6.22635L7.02508 5.9767L6.81443 5.82112C6.78718 5.80094 6.80121 5.75775 6.83512 5.75745L7.09698 5.75546L7.17981 5.50704C7.19045 5.47487 7.23598 5.47487 7.2467 5.50704Z" fill="#F5F5F5"/>
<path d="M7.2467 6.80761L7.32954 7.05603L7.59139 7.05802C7.62531 7.05832 7.63934 7.10156 7.61208 7.12169L7.40143 7.27727L7.48045 7.52692C7.49071 7.55922 7.45387 7.58601 7.42628 7.56626L7.21326 7.41398L7.00024 7.56626C6.97264 7.58597 6.93589 7.55922 6.94606 7.52692L7.02508 7.27727L6.81443 7.12169C6.78718 7.10151 6.80121 7.05832 6.83512 7.05802L7.09698 7.05603L7.17981 6.80761C7.19045 6.77539 7.23598 6.77539 7.2467 6.80761Z" fill="#F5F5F5"/>
<path d="M8.25623 2.24261L8.33906 2.49102L8.60091 2.49301C8.63483 2.49331 8.64886 2.53655 8.6216 2.55669L8.41096 2.71226L8.48998 2.96191C8.50023 2.99421 8.4634 3.021 8.4358 3.00125L8.22278 2.84898L8.00976 3.00125C7.98216 3.02096 7.94541 2.99421 7.95558 2.96191L8.0346 2.71226L7.82396 2.55669C7.7967 2.53651 7.81073 2.49331 7.84464 2.49301L8.1065 2.49102L8.18933 2.24261C8.20001 2.21047 8.24554 2.21047 8.25623 2.24261Z" fill="#F5F5F5"/>
<path d="M8.25623 3.54354L8.33906 3.79196L8.60091 3.79395C8.63483 3.79425 8.64886 3.83749 8.6216 3.85762L8.41096 4.0132L8.48998 4.26285C8.50023 4.29515 8.4634 4.32194 8.4358 4.30219L8.22278 4.14991L8.00976 4.30219C7.98216 4.3219 7.94541 4.29519 7.95558 4.26285L8.0346 4.0132L7.82396 3.85762C7.7967 3.83744 7.81073 3.79425 7.84464 3.79395L8.1065 3.79196L8.18933 3.54354C8.20001 3.51137 8.24554 3.51137 8.25623 3.54354Z" fill="#F5F5F5"/>
<path d="M8.25623 4.8442L8.33906 5.09262L8.60091 5.09461C8.63483 5.09491 8.64886 5.13814 8.6216 5.15828L8.41096 5.31386L8.48998 5.5635C8.50023 5.59581 8.4634 5.6226 8.4358 5.60284L8.22278 5.45057L8.00976 5.60284C7.98216 5.62256 7.94541 5.59581 7.95558 5.5635L8.0346 5.31386L7.82396 5.15828C7.7967 5.1381 7.81073 5.09491 7.84464 5.09461L8.1065 5.09262L8.18933 4.8442C8.20001 4.81202 8.24554 4.81202 8.25623 4.8442Z" fill="#F5F5F5"/>
<path d="M8.25623 6.14483L8.33906 6.39324L8.60091 6.39524C8.63483 6.39553 8.64886 6.43877 8.6216 6.45891L8.41096 6.61449L8.48998 6.86414C8.50023 6.89644 8.4634 6.92323 8.4358 6.90347L8.22278 6.7512L8.00976 6.90347C7.98216 6.92319 7.94541 6.89644 7.95558 6.86414L8.0346 6.61449L7.82396 6.45891C7.7967 6.43873 7.81073 6.39553 7.84464 6.39524L8.1065 6.39324L8.18933 6.14483C8.20001 6.11269 8.24554 6.11269 8.25623 6.14483Z" fill="#F5F5F5"/>
<path d="M9.26575 1.60519L9.34858 1.8536L9.61044 1.85559C9.64435 1.85589 9.65838 1.89913 9.63112 1.91927L9.42048 2.07485L9.4995 2.32449C9.50975 2.35679 9.47292 2.38358 9.44532 2.36383L9.2323 2.21156L9.01928 2.36383C8.99168 2.38354 8.95493 2.35679 8.9651 2.32449L9.04412 2.07485L8.83348 1.91927C8.80622 1.89909 8.82025 1.85589 8.85417 1.85559L9.11602 1.8536L9.19885 1.60519C9.20954 1.57301 9.25498 1.57301 9.26575 1.60519Z" fill="#F5F5F5"/>
<path d="M9.26575 2.90581L9.34858 3.15423L9.61044 3.15622C9.64435 3.15652 9.65838 3.19976 9.63112 3.2199L9.42048 3.37547L9.4995 3.62512C9.50975 3.65742 9.47292 3.68421 9.44532 3.66446L9.2323 3.51219L9.01928 3.66446C8.99168 3.68417 8.95493 3.65742 8.9651 3.62512L9.04412 3.37547L8.83348 3.2199C8.80622 3.19972 8.82025 3.15652 8.85417 3.15622L9.11602 3.15423L9.19885 2.90581C9.20954 2.87368 9.25498 2.87368 9.26575 2.90581Z" fill="#F5F5F5"/>
<path d="M9.26575 4.20635L9.34858 4.45477L9.61044 4.45676C9.64435 4.45706 9.65838 4.5003 9.63112 4.52043L9.42048 4.67601L9.4995 4.92566C9.50975 4.95796 9.47292 4.98475 9.44532 4.965L9.2323 4.81272L9.01928 4.965C8.99168 4.98471 8.95493 4.95796 8.9651 4.92566L9.04412 4.67601L8.83348 4.52043C8.80622 4.50025 8.82025 4.45706 8.85417 4.45676L9.11602 4.45477L9.19885 4.20635C9.20954 4.17422 9.25498 4.17422 9.26575 4.20635Z" fill="#F5F5F5"/>
<path d="M9.26575 5.50704L9.34858 5.75546L9.61044 5.75745C9.64435 5.75775 9.65838 5.80099 9.63112 5.82112L9.42048 5.9767L9.4995 6.22635C9.50975 6.25865 9.47292 6.28544 9.44532 6.26569L9.2323 6.11341L9.01928 6.26569C8.99168 6.2854 8.95493 6.25865 8.9651 6.22635L9.04412 5.9767L8.83348 5.82112C8.80622 5.80094 8.82025 5.75775 8.85417 5.75745L9.11602 5.75546L9.19885 5.50704C9.20954 5.47487 9.25498 5.47487 9.26575 5.50704Z" fill="#F5F5F5"/>
<path d="M9.26575 6.80761L9.34858 7.05603L9.61044 7.05802C9.64435 7.05832 9.65838 7.10156 9.63112 7.12169L9.42048 7.27727L9.4995 7.52692C9.50975 7.55922 9.47292 7.58601 9.44532 7.56626L9.2323 7.41398L9.01928 7.56626C8.99168 7.58597 8.95493 7.55922 8.9651 7.52692L9.04412 7.27727L8.83348 7.12169C8.80622 7.10151 8.82025 7.05832 8.85417 7.05802L9.11602 7.05603L9.19885 6.80761C9.20954 6.77539 9.25498 6.77539 9.26575 6.80761Z" fill="#F5F5F5"/>
</svg>
