<svg width="22" height="15" viewBox="0 0 22 15" fill="none" xmlns="http://www.w3.org/2000/svg">
<g clip-path="url(#clip0_327:422)">
<path d="M21.7237 0H0V4.57393H21.7237V0Z" fill="#4497B1"/>
<path d="M21.7237 4.57397H0V4.86438H21.7237V4.57397Z" fill="#BC0030"/>
<path d="M21.7237 4.86426H0V9.43819H21.7237V4.86426Z" fill="white"/>
<path d="M21.7237 9.36572H0V9.65613H21.7237V9.36572Z" fill="#BC0030"/>
<path d="M21.7237 9.65613H0V14.2301H21.7237V9.65613Z" fill="#50B63F"/>
<path d="M5.04292 2.25063C5.04292 3.19445 4.33173 3.92047 3.55589 3.92047C2.71539 3.92047 2.06885 3.12185 2.06885 2.25063C2.06885 1.3068 2.78004 0.508179 3.55589 0.508179C4.39638 0.580781 5.04292 1.3068 5.04292 2.25063Z" fill="white"/>
<path d="M5.49484 2.25038C5.49484 3.049 4.91296 3.70242 4.20177 3.70242C3.49058 3.70242 2.90869 3.049 2.90869 2.25038C2.90869 1.45176 3.49058 0.79834 4.20177 0.79834C4.91296 0.870942 5.49484 1.52436 5.49484 2.25038Z" fill="#4497B1"/>
<path d="M7.37057 0.580811L7.30591 0.871244L7.43523 0.943852L7.37057 0.580811Z" fill="white"/>
<path d="M7.37036 0.580811L7.49968 0.871244L7.37036 0.943852V0.580811Z" fill="white"/>
<path d="M7.69366 0.798584H7.37036V0.943801L7.69366 0.798584Z" fill="white"/>
<path d="M7.69366 0.798584L7.43502 1.01641L7.37036 0.871192L7.69366 0.798584Z" fill="white"/>
<path d="M7.11182 0.798584L7.37045 1.01641L7.43511 0.871192L7.11182 0.798584Z" fill="white"/>
<path d="M7.11182 0.798584H7.43511V0.943801L7.11182 0.798584Z" fill="white"/>
<path d="M7.56479 1.16193L7.50007 0.871216L7.30591 0.943894L7.56479 1.16193Z" fill="white"/>
<path d="M7.56479 1.16193L7.30591 1.01657L7.43535 0.871216L7.56479 1.16193Z" fill="white"/>
<path d="M7.24121 1.16193L7.43538 1.01657L7.37065 0.871216L7.24121 1.16193Z" fill="white"/>
<path d="M7.24121 1.16193L7.30593 0.871216L7.43538 0.943894L7.24121 1.16193Z" fill="white"/>
<path d="M8.59884 0.580811L8.53418 0.871244L8.6635 0.943852L8.59884 0.580811Z" fill="white"/>
<path d="M8.59884 0.580811L8.72816 0.871244L8.53418 0.943852L8.59884 0.580811Z" fill="white"/>
<path d="M8.92217 0.798584H8.59888V0.943801L8.92217 0.798584Z" fill="white"/>
<path d="M8.92251 0.798584L8.66362 1.01662L8.53418 0.871262L8.92251 0.798584Z" fill="white"/>
<path d="M8.34033 0.798584L8.53431 1.01641L8.66363 0.871192L8.34033 0.798584Z" fill="white"/>
<path d="M8.34033 0.798584H8.59922V0.94394L8.34033 0.798584Z" fill="white"/>
<path d="M8.79307 1.16193L8.66362 0.871216L8.53418 0.943894L8.79307 1.16193Z" fill="white"/>
<path d="M8.79307 1.16193L8.53418 1.01657L8.5989 0.871216L8.79307 1.16193Z" fill="white"/>
<path d="M8.40503 1.16193L8.66391 1.01657L8.59919 0.871216L8.40503 1.16193Z" fill="white"/>
<path d="M8.40503 1.16193L8.53447 0.871216L8.66391 0.943894L8.40503 1.16193Z" fill="white"/>
<path d="M9.82732 0.580811L9.698 0.871244L9.89198 0.943852L9.82732 0.580811Z" fill="white"/>
<path d="M9.82735 0.580811L9.89201 0.871244L9.7627 0.943852L9.82735 0.580811Z" fill="white"/>
<path d="M10.0863 0.798584H9.82739V0.94394L10.0863 0.798584Z" fill="white"/>
<path d="M10.086 0.798584L9.89201 1.01641L9.7627 0.871192L10.086 0.798584Z" fill="white"/>
<path d="M9.50415 0.798584L9.76304 1.01662L9.89248 0.871262L9.50415 0.798584Z" fill="white"/>
<path d="M9.50415 0.798584H9.82745V0.943801L9.50415 0.798584Z" fill="white"/>
<path d="M10.0216 1.16193L9.89214 0.871216L9.7627 0.943894L10.0216 1.16193Z" fill="white"/>
<path d="M10.0216 1.16193L9.7627 1.01657L9.82742 0.871216L10.0216 1.16193Z" fill="white"/>
<path d="M9.6333 1.16193L9.89219 1.01657L9.82747 0.871216L9.6333 1.16193Z" fill="white"/>
<path d="M9.6333 1.16193L9.76274 0.871216L9.89219 0.943894L9.6333 1.16193Z" fill="white"/>
<path d="M6.20671 1.96021L6.07739 2.25064L6.20671 2.32325V1.96021Z" fill="white"/>
<path d="M6.20675 1.96021L6.27141 2.25064L6.14209 2.32325L6.20675 1.96021Z" fill="white"/>
<path d="M6.46539 2.1781H6.14209V2.32332L6.46539 2.1781Z" fill="white"/>
<path d="M6.46539 2.1781L6.20675 2.39593L6.14209 2.25071L6.46539 2.1781Z" fill="white"/>
<path d="M5.88354 2.1781L6.14218 2.39593L6.20684 2.25071L5.88354 2.1781Z" fill="white"/>
<path d="M5.88354 2.1781H6.20684V2.32332L5.88354 2.1781Z" fill="white"/>
<path d="M6.33625 2.54132L6.27153 2.25061H6.14209L6.33625 2.54132Z" fill="white"/>
<path d="M6.33625 2.54132L6.14209 2.32329L6.20681 2.25061L6.33625 2.54132Z" fill="white"/>
<path d="M6.0127 2.54132L6.27158 2.32329L6.14214 2.25061L6.0127 2.54132Z" fill="white"/>
<path d="M6.0127 2.54132L6.07742 2.25061H6.20686L6.0127 2.54132Z" fill="white"/>
<path d="M7.37057 1.96021L7.30591 2.25064L7.43523 2.32325L7.37057 1.96021Z" fill="white"/>
<path d="M7.37036 1.96021L7.49968 2.25064L7.37036 2.32325V1.96021Z" fill="white"/>
<path d="M7.69366 2.1781H7.37036V2.32332L7.69366 2.1781Z" fill="white"/>
<path d="M7.69366 2.1781L7.43502 2.39593L7.37036 2.25071L7.69366 2.1781Z" fill="white"/>
<path d="M7.11182 2.1781L7.37045 2.39593L7.43511 2.25071L7.11182 2.1781Z" fill="white"/>
<path d="M7.11182 2.1781H7.43511V2.32332L7.11182 2.1781Z" fill="white"/>
<path d="M7.56479 2.54132L7.50007 2.25061H7.30591L7.56479 2.54132Z" fill="white"/>
<path d="M7.56479 2.54132L7.30591 2.32329L7.43535 2.25061L7.56479 2.54132Z" fill="white"/>
<path d="M7.24121 2.54132L7.43538 2.32329L7.37065 2.25061L7.24121 2.54132Z" fill="white"/>
<path d="M7.24121 2.54132L7.30593 2.25061H7.43538L7.24121 2.54132Z" fill="white"/>
<path d="M8.59884 1.96021L8.53418 2.25064L8.6635 2.32325L8.59884 1.96021Z" fill="white"/>
<path d="M8.59884 1.96021L8.72816 2.25064L8.53418 2.32325L8.59884 1.96021Z" fill="white"/>
<path d="M8.92217 2.1781H8.59888V2.32332L8.92217 2.1781Z" fill="white"/>
<path d="M8.92251 2.1781L8.66362 2.39613L8.53418 2.25078L8.92251 2.1781Z" fill="white"/>
<path d="M8.34033 2.1781L8.53431 2.39593L8.66363 2.25071L8.34033 2.1781Z" fill="white"/>
<path d="M8.34033 2.1781H8.59922V2.32346L8.34033 2.1781Z" fill="white"/>
<path d="M8.79307 2.54132L8.66362 2.25061H8.53418L8.79307 2.54132Z" fill="white"/>
<path d="M8.79307 2.54132L8.53418 2.32329L8.5989 2.25061L8.79307 2.54132Z" fill="white"/>
<path d="M8.40503 2.54132L8.66391 2.32329L8.59919 2.25061L8.40503 2.54132Z" fill="white"/>
<path d="M8.40503 2.54132L8.53447 2.25061H8.66391L8.40503 2.54132Z" fill="white"/>
<path d="M9.82732 1.96021L9.698 2.25064L9.89198 2.32325L9.82732 1.96021Z" fill="white"/>
<path d="M9.82735 1.96021L9.89201 2.25064L9.7627 2.32325L9.82735 1.96021Z" fill="white"/>
<path d="M10.0863 2.1781H9.82739V2.32346L10.0863 2.1781Z" fill="white"/>
<path d="M10.086 2.1781L9.89201 2.39593L9.7627 2.25071L10.086 2.1781Z" fill="white"/>
<path d="M9.50415 2.1781L9.76304 2.39613L9.89248 2.25078L9.50415 2.1781Z" fill="white"/>
<path d="M9.50415 2.1781H9.82745V2.32332L9.50415 2.1781Z" fill="white"/>
<path d="M10.0216 2.54132L9.89214 2.25061H9.7627L10.0216 2.54132Z" fill="white"/>
<path d="M10.0216 2.54132L9.7627 2.32329L9.82742 2.25061L10.0216 2.54132Z" fill="white"/>
<path d="M9.6333 2.54132L9.89219 2.32329L9.82747 2.25061L9.6333 2.54132Z" fill="white"/>
<path d="M9.6333 2.54132L9.76274 2.25061H9.89219L9.6333 2.54132Z" fill="white"/>
<path d="M4.97832 3.26709L4.84888 3.63048L5.04304 3.70316L4.97832 3.26709Z" fill="white"/>
<path d="M4.9783 3.26709L5.04302 3.63048L4.91357 3.70316L4.9783 3.26709Z" fill="white"/>
<path d="M5.23716 3.55737H4.97827V3.70273L5.23716 3.55737Z" fill="white"/>
<path d="M5.23687 3.55737L4.97823 3.70259L4.91357 3.62998L5.23687 3.55737Z" fill="white"/>
<path d="M4.65503 3.55737L4.91367 3.70259L4.97833 3.62998L4.65503 3.55737Z" fill="white"/>
<path d="M4.65503 3.55737H4.97833V3.70259L4.65503 3.55737Z" fill="white"/>
<path d="M5.17221 3.92042L5.04289 3.55737L4.91357 3.62998L5.17221 3.92042Z" fill="white"/>
<path d="M5.17221 3.92042L4.91357 3.70259L4.97823 3.55737L5.17221 3.92042Z" fill="white"/>
<path d="M4.78442 3.92042L5.04306 3.70259L4.91374 3.55737L4.78442 3.92042Z" fill="white"/>
<path d="M4.78442 3.92042L4.84908 3.55737L5.04306 3.62998L4.78442 3.92042Z" fill="white"/>
<path d="M6.20684 3.26709L6.07739 3.63048L6.20684 3.70316V3.26709Z" fill="white"/>
<path d="M6.20681 3.26709L6.27153 3.63048L6.14209 3.70316L6.20681 3.26709Z" fill="white"/>
<path d="M6.46539 3.55737H6.14209V3.70259L6.46539 3.55737Z" fill="white"/>
<path d="M6.46539 3.55737L6.20675 3.70259L6.14209 3.62998L6.46539 3.55737Z" fill="white"/>
<path d="M5.88354 3.55737L6.14218 3.70259L6.20684 3.62998L5.88354 3.55737Z" fill="white"/>
<path d="M5.88354 3.55737H6.20684V3.70259L5.88354 3.55737Z" fill="white"/>
<path d="M6.33607 3.92042L6.27141 3.55737L6.14209 3.62998L6.33607 3.92042Z" fill="white"/>
<path d="M6.33607 3.92042L6.14209 3.70259L6.20675 3.55737L6.33607 3.92042Z" fill="white"/>
<path d="M6.0127 3.92042L6.27133 3.70259L6.14201 3.55737L6.0127 3.92042Z" fill="white"/>
<path d="M6.0127 3.92042L6.07735 3.55737L6.20667 3.62998L6.0127 3.92042Z" fill="white"/>
<path d="M7.37063 3.26709L7.30591 3.63048L7.43535 3.70316L7.37063 3.26709Z" fill="white"/>
<path d="M7.37036 3.26709L7.4998 3.63048L7.37036 3.70316V3.26709Z" fill="white"/>
<path d="M7.69366 3.55737H7.37036V3.70259L7.69366 3.55737Z" fill="white"/>
<path d="M7.69366 3.55737L7.43502 3.70259L7.37036 3.62998L7.69366 3.55737Z" fill="white"/>
<path d="M7.11182 3.55737L7.37045 3.70259L7.43511 3.62998L7.11182 3.55737Z" fill="white"/>
<path d="M7.11182 3.55737H7.43511V3.70259L7.11182 3.55737Z" fill="white"/>
<path d="M7.56455 3.92042L7.49989 3.55737L7.30591 3.62998L7.56455 3.92042Z" fill="white"/>
<path d="M7.56455 3.92042L7.30591 3.70259L7.43523 3.55737L7.56455 3.92042Z" fill="white"/>
<path d="M7.24121 3.92042L7.43519 3.70259L7.37053 3.55737L7.24121 3.92042Z" fill="white"/>
<path d="M7.24121 3.92042L7.30587 3.55737L7.43519 3.62998L7.24121 3.92042Z" fill="white"/>
<path d="M8.5989 3.26709L8.53418 3.63048L8.66362 3.70316L8.5989 3.26709Z" fill="white"/>
<path d="M8.5989 3.26709L8.72834 3.63048L8.53418 3.70316L8.5989 3.26709Z" fill="white"/>
<path d="M8.92217 3.55737H8.59888V3.70259L8.92217 3.55737Z" fill="white"/>
<path d="M8.92251 3.55737L8.66362 3.70273L8.53418 3.63005L8.92251 3.55737Z" fill="white"/>
<path d="M8.34033 3.55737L8.53431 3.70259L8.66363 3.62998L8.34033 3.55737Z" fill="white"/>
<path d="M8.34033 3.55737H8.59922V3.70273L8.34033 3.55737Z" fill="white"/>
<path d="M8.79282 3.92042L8.6635 3.55737L8.53418 3.62998L8.79282 3.92042Z" fill="white"/>
<path d="M8.79282 3.92042L8.53418 3.70259L8.59884 3.55737L8.79282 3.92042Z" fill="white"/>
<path d="M8.40503 3.92042L8.66367 3.70259L8.59901 3.55737L8.40503 3.92042Z" fill="white"/>
<path d="M8.40503 3.92042L8.53435 3.55737L8.66367 3.62998L8.40503 3.92042Z" fill="white"/>
<path d="M9.82744 3.26709L9.698 3.63048L9.89216 3.70316L9.82744 3.26709Z" fill="white"/>
<path d="M9.82742 3.26709L9.89214 3.63048L9.7627 3.70316L9.82742 3.26709Z" fill="white"/>
<path d="M10.0863 3.55737H9.82739V3.70273L10.0863 3.55737Z" fill="white"/>
<path d="M10.086 3.55737L9.89201 3.70259L9.7627 3.62998L10.086 3.55737Z" fill="white"/>
<path d="M9.50415 3.55737L9.76304 3.70273L9.89248 3.63005L9.50415 3.55737Z" fill="white"/>
<path d="M9.50415 3.55737H9.82745V3.70259L9.50415 3.55737Z" fill="white"/>
<path d="M10.0213 3.92042L9.89201 3.55737L9.7627 3.62998L10.0213 3.92042Z" fill="white"/>
<path d="M10.0213 3.92042L9.7627 3.70259L9.82735 3.55737L10.0213 3.92042Z" fill="white"/>
<path d="M9.6333 3.92042L9.89194 3.70259L9.82728 3.55737L9.6333 3.92042Z" fill="white"/>
<path d="M9.6333 3.92042L9.76262 3.55737L9.89194 3.62998L9.6333 3.92042Z" fill="white"/>
</g>
<defs>
<clipPath id="clip0_327:422">
<rect width="21.7237" height="14.23" fill="white"/>
</clipPath>
</defs>
</svg>
